<svg width="620" height="496" viewBox="0 0 620 496" fill="none" xmlns="http://www.w3.org/2000/svg">
<path opacity="0.3" d="M581.471 245.732C660.483 412.147 580.581 496 457.021 496C333.461 496 -53.1254 417.307 6.13384 210.47C67.4088 -3.40223 438.127 -20.1747 506.833 13.5236C613.565 65.8726 530.439 138.249 581.471 245.732Z" fill="url(#paint0_linear_85_5992)"/>
<path d="M414.489 77.4058C427.379 40.3364 458.981 7.82997 497.894 3.14594C475.194 39.2959 465.981 82.2878 471.884 124.515C474.22 140.792 478.511 158.649 470.01 172.746C464.72 181.518 455.191 187.064 445.304 189.697C435.417 192.329 425.059 192.384 414.834 192.422L412.569 193.606C404.577 155.228 401.599 114.475 414.489 77.4058Z" fill="#0B5578"/>
<path d="M498.098 3.94199C472.175 22.9377 452.127 50.3323 442.364 81.0061C440.253 87.6377 438.688 94.5475 438.736 101.536C438.834 108.348 440.752 115.005 444.292 120.815C447.484 126.299 451.384 131.538 453.187 137.706C455.087 144.208 453.787 150.86 450.302 156.597C446.039 163.616 439.513 168.689 432.96 173.428C425.685 178.69 418.045 184.04 413.695 192.142C413.168 193.124 411.679 192.251 412.205 191.271C419.773 177.176 436.16 171.739 446.003 159.686C450.596 154.062 453.526 147.023 451.918 139.714C450.511 133.323 446.494 127.918 443.214 122.393C439.771 116.592 437.474 110.542 437.079 103.747C436.675 96.7953 437.974 89.8104 439.906 83.1543C444.4 68.0931 451.23 53.8272 460.145 40.8793C470.239 26.0457 482.789 13.0439 497.253 2.43628C498.149 1.78011 498.988 3.29009 498.098 3.94199Z" fill="#01344C"/>
<path d="M445.012 70.8692C440.067 68.4916 436.131 64.4298 433.908 59.409C431.684 54.3883 431.318 48.7356 432.874 43.4604C433.192 42.3941 434.861 42.8356 434.542 43.9033C433.084 48.8129 433.426 54.0784 435.506 58.7494C437.586 63.4205 441.268 67.1894 445.886 69.376C446.889 69.8523 446.01 71.3428 445.012 70.8692Z" fill="#01344C"/>
<path d="M442.308 118.249C452.939 114.617 461.822 107.111 467.184 97.2264C467.715 96.2467 469.204 97.1188 468.674 98.0974C463.074 108.373 453.815 116.166 442.744 119.921C441.688 120.278 441.258 118.605 442.308 118.249Z" fill="#01344C"/>
<path d="M471.463 27.9809C473.184 29.3004 475.206 30.1706 477.349 30.5133C479.491 30.856 481.686 30.6605 483.737 29.9443C484.787 29.5739 485.216 31.2481 484.172 31.6161C481.903 32.3968 479.478 32.6097 477.111 32.2363C474.743 31.8629 472.504 30.9146 470.589 29.4741C470.397 29.3535 470.259 29.1641 470.201 28.9446C470.144 28.725 470.173 28.4917 470.281 28.292C470.398 28.0949 470.587 27.9516 470.809 27.8934C471.03 27.8351 471.265 27.8665 471.463 27.9809Z" fill="#01344C"/>
<path d="M401.478 20.9286C401.312 21.3729 401.145 21.8173 400.985 22.2695C398.781 28.2533 397.1 34.3849 395.96 40.6038C395.864 41.0835 395.774 41.5708 395.692 42.0518C393.117 57.0588 393.555 72.3298 396.984 87.0884C398.354 92.96 400.205 98.7182 402.521 104.313C405.72 112.04 409.855 120.17 410.093 128.236C410.128 129.077 410.106 129.92 410.029 130.76L373.398 157.643C373.283 157.665 373.173 157.696 373.057 157.719L371.646 158.854C371.505 158.573 371.365 158.28 371.224 157.999C371.141 157.837 371.067 157.668 370.984 157.506C370.931 157.396 370.879 157.286 370.825 157.189C370.807 157.152 370.79 157.116 370.779 157.087C370.725 156.99 370.685 156.895 370.638 156.806C369.85 155.166 369.074 153.518 368.309 151.861C368.302 151.853 368.302 151.853 368.304 151.84C362.509 139.203 357.807 125.987 355.427 112.493C355.355 112.087 355.277 111.673 355.222 111.255C354.186 105.166 353.689 98.9996 353.735 92.8174C353.773 89.4321 353.994 86.0476 354.4 82.677C355.465 73.9694 357.995 65.4472 361.898 57.4227C369.68 41.427 382.838 27.8302 400.151 21.4074C400.594 21.2433 401.029 21.085 401.478 20.9286Z" fill="#0B5578"/>
<path d="M401.755 21.4148C386.469 37.9397 376.68 59.0145 374.687 80.595C374.256 85.2607 374.255 90.0212 375.407 94.577C376.566 99.0091 378.988 103.051 382.42 106.282C385.554 109.355 389.149 112.155 391.41 115.896C393.794 119.84 393.94 124.39 392.394 128.69C390.503 133.951 386.702 138.3 382.828 142.437C378.527 147.029 373.982 151.737 372.203 157.719C371.987 158.444 370.795 158.111 371.011 157.387C374.105 146.98 384.82 140.825 389.849 131.39C392.196 126.988 393.141 121.926 390.835 117.409C388.818 113.46 385.113 110.569 381.91 107.483C378.548 104.243 375.956 100.658 374.589 96.2836C373.192 91.809 372.992 87.0418 373.293 82.3885C374.059 71.8398 376.605 61.4391 380.836 51.5673C385.598 40.2769 392.389 29.7919 400.917 20.5661C401.445 19.9953 402.28 20.8478 401.755 21.4148Z" fill="#01344C"/>
<path d="M374.937 73.5552C371.06 72.7891 367.628 70.7627 365.252 67.838C362.877 64.9132 361.714 61.2806 361.97 57.5888C362.024 56.8419 363.275 56.8648 363.22 57.6127C362.975 61.0502 364.059 64.4339 366.277 67.1531C368.495 69.8723 371.701 71.7479 375.315 72.4413C376.1 72.5929 375.717 73.7059 374.937 73.5552Z" fill="#01344C"/>
<path d="M380.606 104.921C387.54 100.86 392.618 94.5459 394.828 87.2395C395.046 86.5154 396.238 86.8481 396.02 87.5713C393.706 95.1708 388.407 101.731 381.182 105.944C380.493 106.345 379.921 105.32 380.606 104.921Z" fill="#01344C"/>
<path d="M386.772 41.3458C388.199 41.9338 389.768 42.1804 391.338 42.0635C392.907 41.9467 394.428 41.47 395.763 40.6764C396.446 40.2675 397.017 41.2924 396.338 41.6986C394.859 42.5692 393.179 43.0937 391.445 43.2264C389.712 43.3591 387.977 43.0958 386.393 42.4597C386.238 42.4115 386.11 42.3099 386.034 42.1756C385.959 42.0414 385.941 41.8845 385.986 41.7368C386.037 41.5896 386.148 41.4659 386.295 41.3927C386.442 41.3195 386.614 41.3026 386.772 41.3458Z" fill="#01344C"/>
<path d="M533.403 229.957C533.936 229.825 534.434 229.578 534.861 229.232C535.289 228.887 535.635 228.451 535.877 227.957C536.118 227.462 536.249 226.921 536.259 226.37C536.27 225.82 536.16 225.274 535.937 224.77L545.681 215.627L538.94 214.002L530.72 222.933C529.902 223.365 529.27 224.082 528.945 224.95C528.619 225.818 528.621 226.775 528.952 227.641C529.283 228.506 529.919 229.22 530.739 229.647C531.559 230.074 532.507 230.184 533.403 229.957Z" fill="#F5C9A0"/>
<path d="M538.437 222.592L533.893 216.163L550.962 198.451L554.925 170.531C555.121 169.151 555.618 167.831 556.379 166.666C557.141 165.5 558.149 164.516 559.332 163.785C560.515 163.054 561.844 162.593 563.224 162.435C564.605 162.277 566.003 162.426 567.32 162.871C569.697 163.678 571.658 165.398 572.773 167.654C573.888 169.909 574.065 172.517 573.266 174.904L563.154 205.004L538.437 222.592Z" fill="#E4E4E4"/>
<path d="M570.487 341.554H565.442L563.042 322.031L570.488 322.032L570.487 341.554Z" fill="#F5C9A0"/>
<path d="M573.201 351.164H569.621L568.982 347.773L567.346 351.164H557.852C557.397 351.164 556.953 351.018 556.587 350.747C556.22 350.477 555.949 350.096 555.814 349.66C555.679 349.224 555.686 348.756 555.834 348.324C555.982 347.893 556.264 347.52 556.639 347.261L564.221 342.007V338.579L572.195 339.057L573.201 351.164Z" fill="#022333"/>
<path d="M601.61 336.404L597.179 338.822L585.771 322.826L592.31 319.255L601.61 336.404Z" fill="#F5C9A0"/>
<path d="M608.572 343.543L605.428 345.26L603.251 342.588L603.429 346.351L595.09 350.904C594.69 351.122 594.231 351.206 593.781 351.144C593.33 351.083 592.91 350.878 592.584 350.56C592.257 350.242 592.04 349.828 591.965 349.377C591.89 348.927 591.96 348.464 592.165 348.057L596.322 339.807L594.689 336.796L601.921 333.391L608.572 343.543Z" fill="#022333"/>
<path d="M572.612 334.602H562.187V297.356L555.732 273.073C551.1 255.708 549.869 237.606 552.107 219.77L552.116 219.697L552.172 219.65C552.338 219.51 568.857 205.807 579.307 216.29C586.35 223.356 579.732 248.764 579.361 250.159V293.96L572.612 334.602Z" fill="#038FD1"/>
<path d="M572.587 158.981L572.532 158.926L565.885 159.027L559.239 159.129L552.142 175.841C545.572 186.079 551.854 191.902 552.295 192.824L551.038 205.386L550.229 213.49L548.93 226.538L579.396 216.552L576.007 202.932L579.923 183.287C580.793 178.943 580.578 174.45 579.298 170.21C578.018 165.969 575.713 162.112 572.587 158.981Z" fill="#E4E4E4"/>
<path d="M566.393 297.548L587.81 327.772L596.026 321.912L578.139 285.034L566.393 297.548Z" fill="#038FD1"/>
<path d="M564.643 155.733C571.421 155.733 576.916 150.221 576.916 143.421C576.916 136.621 571.421 131.108 564.643 131.108C557.865 131.108 552.371 136.621 552.371 143.421C552.371 150.221 557.865 155.733 564.643 155.733Z" fill="#F5C9A0"/>
<path opacity="0.1" d="M576.479 191.053L563.094 206.548L550.229 213.49L551.038 205.386L558.614 201.118L576.479 191.053Z" fill="black"/>
<path d="M556.047 166.495L554.896 161.432C554.518 159.738 554.481 157.985 554.788 156.277C555.096 154.568 555.741 152.939 556.685 151.484C557.553 150.113 558.037 148.532 558.086 146.908C558.135 145.285 557.747 143.678 556.963 142.256C556.384 141.108 555.505 140.138 554.419 139.452C553.333 138.766 552.082 138.389 550.799 138.362H550.493V138.054C550.493 133.639 553.922 130.523 557.111 130.344C557.226 129.426 557.875 128.602 559.006 127.948C561.705 126.387 566.925 126.048 570.869 128.129C570.942 127.456 571.195 126.816 571.601 126.275C572.007 125.735 572.552 125.315 573.177 125.06C573.825 124.834 574.523 124.794 575.192 124.944C575.25 123.837 575.705 122.789 576.475 121.993C577.563 120.935 579.31 120.532 581.267 120.887C583.955 121.376 586.605 123.094 588.728 125.725C590.61 128.057 591.916 130.806 593.18 133.464C594.422 136.078 595.707 138.781 597.57 141.07C599.61 143.577 602.138 145.201 604.688 145.644C607.663 146.16 610.715 144.932 612.112 142.657L612.389 142.206L612.642 142.672C614.211 145.565 613.569 149.54 611.115 152.124C608.914 154.441 605.461 155.622 601.88 155.279C598.848 154.99 595.789 153.697 592.79 151.437C589.811 149.193 587.968 146.712 587.314 144.063C587.13 143.243 586.999 142.413 586.92 141.576C586.717 139.825 586.526 138.17 585.452 136.953C584.487 135.858 582.993 135.383 581.668 135.025L581.408 134.955C581.361 135.448 581.207 135.925 580.957 136.353C580.706 136.78 580.367 137.148 579.96 137.43C579.716 137.577 579.449 137.68 579.169 137.735C580.705 143.937 580.074 148.684 577.291 151.85C572.594 157.194 563.567 156.095 563.185 156.046L562.931 156.013L562.918 155.756C562.884 155.067 562.8 154.381 562.667 153.705C561.374 156.83 557.025 165.094 556.444 165.927L556.047 166.495Z" fill="#01344C"/>
<path d="M165.331 186.375C164.972 186.849 164.514 187.238 163.989 187.514C163.464 187.791 162.885 187.949 162.293 187.977C161.701 188.005 161.11 187.902 160.561 187.676C160.013 187.45 159.52 187.106 159.119 186.669L145.902 192.436L147.189 185.034L159.543 180.692C160.32 180.064 161.3 179.744 162.297 179.792C163.295 179.84 164.239 180.254 164.953 180.954C165.666 181.655 166.099 182.594 166.168 183.593C166.238 184.592 165.94 185.582 165.331 186.375Z" fill="#F5C9A0"/>
<path d="M156.511 188.686L125.812 202.405L125.746 202.382L90.7576 189.873C88.1514 188.506 86.1645 186.192 85.2036 183.404C84.2428 180.615 84.3807 177.564 85.5891 174.874C86.259 173.388 87.2349 172.061 88.4527 170.981C89.6706 169.901 91.1026 169.091 92.6547 168.606C94.2067 168.121 95.8436 167.972 97.4575 168.167C99.0714 168.362 100.626 168.898 102.018 169.74L128.056 185.476L153.305 182.193L156.511 188.686Z" fill="#038FD1"/>
<path d="M126.698 98.3593C115.092 72.6055 115.52 39.9614 133.531 18.2293C139.557 48.3644 156.013 75.39 179.988 94.5243C189.26 101.87 200.336 109.072 202.869 120.649C204.446 127.853 202.211 135.473 198.349 141.749C194.486 148.024 189.102 153.186 183.779 158.274L183.182 160.015C160.02 143.926 138.303 124.113 126.698 98.3593Z" fill="#0B5578"/>
<path d="M134.032 18.5435C129.887 41.3148 132.966 65.5621 143.041 86.4249C145.219 90.9354 147.82 95.3207 151.302 98.9484C154.723 102.458 159.019 104.985 163.743 106.266C168.123 107.549 172.752 108.353 176.746 110.682C180.955 113.137 183.567 117.256 184.585 121.98C185.83 127.76 184.93 133.644 183.852 139.367C182.654 145.722 181.31 152.304 183.045 158.692C183.255 159.466 182.046 159.748 181.836 158.975C178.817 147.861 184.687 136.899 183.867 125.725C183.484 120.511 181.532 115.381 177.076 112.36C173.179 109.718 168.407 108.885 163.96 107.624C159.291 106.3 155.098 104.278 151.53 100.924C147.88 97.4928 145.103 93.2002 142.82 88.7654C137.716 78.6701 134.226 67.8325 132.478 56.6497C130.413 43.898 130.537 30.8857 132.845 18.1759C132.988 17.3893 134.174 17.7621 134.032 18.5435Z" fill="#01344C"/>
<path d="M139.41 79.8169C135.65 81.0258 131.584 80.8545 127.939 79.3336C124.293 77.8127 121.305 75.0412 119.509 71.5142C119.147 70.7993 120.238 70.2027 120.599 70.9186C122.267 74.206 125.05 76.7874 128.448 78.1967C131.845 79.6059 135.633 79.7503 139.127 78.6038C139.887 78.3556 140.165 79.57 139.41 79.8169Z" fill="#01344C"/>
<path d="M161.437 105.909C165.194 98.7424 166.12 90.4187 164.032 82.5974C163.824 81.8227 165.034 81.5404 165.241 82.3142C167.399 90.4573 166.417 99.1174 162.491 106.566C162.117 107.276 161.064 106.615 161.437 105.909Z" fill="#01344C"/>
<path d="M132.009 44.3026C133.561 44.139 135.048 43.5913 136.337 42.7085C137.625 41.8258 138.675 40.6358 139.392 39.2453C139.758 38.5312 140.81 39.1933 140.447 39.9028C139.648 41.4353 138.487 42.7482 137.065 43.7266C135.643 44.705 134.004 45.3193 132.291 45.5157C132.131 45.5478 131.965 45.5176 131.827 45.4312C131.688 45.3449 131.588 45.2089 131.546 45.0508C131.509 44.89 131.537 44.7212 131.624 44.5811C131.711 44.441 131.849 44.341 132.009 44.3026Z" fill="#01344C"/>
<path d="M228.913 18.4815C228.697 18.934 228.482 19.3864 228.271 19.8481C225.404 25.9457 223.035 32.267 221.188 38.7495C221.038 39.2485 220.892 39.7564 220.756 40.2586C216.473 55.924 215.125 72.2512 216.783 88.4101C217.448 94.8395 218.6 101.209 220.229 107.463C222.478 116.1 225.602 125.285 224.897 133.909C224.834 134.81 224.715 135.706 224.541 136.591L185.345 160.611C185.228 160.62 185.117 160.639 185 160.649L183.479 161.68C183.372 161.363 183.269 161.033 183.162 160.716C183.1 160.533 183.046 160.344 182.983 160.16C182.945 160.036 182.906 159.912 182.864 159.802C182.851 159.761 182.838 159.72 182.83 159.688C182.788 159.578 182.761 159.472 182.724 159.371C182.14 157.524 181.567 155.669 181.007 153.808C181.001 153.799 181.001 153.799 181.005 153.784C176.77 139.588 173.68 124.912 172.909 110.232C172.886 109.791 172.857 109.34 172.851 108.888C172.54 102.269 172.769 95.6356 173.535 89.054C173.966 85.4515 174.578 81.8733 175.37 78.3329C177.433 69.1891 180.916 60.4278 185.693 52.3701C195.218 36.3085 209.756 23.4819 227.55 18.824C228.005 18.7052 228.452 18.5914 228.913 18.4815Z" fill="#0B5578"/>
<path d="M229.128 19.0347C212.154 34.7126 200.061 55.9326 195.585 78.676C194.618 83.5931 194.063 88.6655 194.666 93.6653C195.291 98.5343 197.205 103.146 200.208 107.023C202.935 110.693 206.149 114.131 207.94 118.403C209.827 122.905 209.441 127.772 207.419 132.159C204.944 137.526 200.695 141.68 196.399 145.599C191.629 149.949 186.606 154.392 184.158 160.541C183.862 161.286 182.727 160.781 183.023 160.037C187.282 149.339 198.548 144.133 204.598 134.715C207.422 130.32 208.942 125.046 207.197 119.942C205.671 115.479 202.36 111.931 199.566 108.238C196.633 104.361 194.498 100.214 193.662 95.3805C192.807 90.4362 193.166 85.3313 194.004 80.411C195.987 69.2678 199.705 58.5067 205.02 48.5221C211.024 37.0929 218.931 26.7783 228.402 18.0244C228.988 17.4829 229.711 18.4967 229.128 19.0347Z" fill="#01344C"/>
<path d="M196.652 71.2064C192.925 69.9006 189.781 67.308 187.783 63.8917C185.785 60.4753 185.063 56.4577 185.745 52.5562C185.886 51.7673 187.114 51.9496 186.973 52.7396C186.332 56.3714 187.005 60.1138 188.872 63.2913C190.739 66.4688 193.677 68.872 197.155 70.0673C197.91 70.3279 197.403 71.4655 196.652 71.2064Z" fill="#01344C"/>
<path d="M198.581 105.344C205.881 101.892 211.616 95.8053 214.642 88.2989C214.942 87.555 216.077 88.06 215.778 88.8031C212.614 96.6085 206.633 102.93 199.029 106.506C198.304 106.846 197.86 105.683 198.581 105.344Z" fill="#01344C"/>
<path d="M212.056 38.3801C213.393 39.1868 214.909 39.6477 216.468 39.7213C218.027 39.795 219.579 39.4791 220.986 38.8019C221.706 38.4525 222.149 39.6168 221.433 39.9639C219.876 40.7047 218.161 41.0515 216.438 40.974C214.716 40.8965 213.039 40.397 211.553 39.5192C211.406 39.4482 211.292 39.3238 211.233 39.1712C211.174 39.0185 211.176 38.8492 211.237 38.6976C211.304 38.5471 211.428 38.4293 211.581 38.3699C211.735 38.3104 211.905 38.3141 212.056 38.3801Z" fill="#01344C"/>
<path d="M144.489 281.116H443.07V107.691C443.068 106.392 442.553 105.146 441.637 104.227C440.721 103.309 439.48 102.792 438.184 102.79H149.374C148.079 102.792 146.837 103.309 145.921 104.227C145.005 105.146 144.49 106.392 144.489 107.691V281.116Z" fill="#CACACA"/>
<path d="M433.885 111.816H153.801V269.225H433.885V111.816Z" fill="white"/>
<path d="M144.229 276.423V297.824C144.229 298.711 144.403 299.59 144.741 300.409C145.08 301.229 145.576 301.974 146.201 302.601C146.826 303.229 147.569 303.726 148.386 304.066C149.203 304.405 150.078 304.58 150.963 304.58H261.167V344.97H241.316C241.201 344.97 241.088 344.993 240.981 345.037C240.875 345.081 240.779 345.146 240.698 345.227C240.616 345.309 240.552 345.406 240.508 345.512C240.464 345.619 240.441 345.733 240.441 345.848V350.63C240.441 350.746 240.464 350.86 240.508 350.966C240.552 351.073 240.616 351.169 240.698 351.251C240.779 351.332 240.875 351.397 240.981 351.441C241.088 351.485 241.201 351.508 241.316 351.508H346.502C346.617 351.508 346.731 351.485 346.837 351.441C346.943 351.397 347.039 351.332 347.12 351.251C347.202 351.169 347.266 351.073 347.31 350.966C347.354 350.86 347.377 350.746 347.377 350.63V345.848C347.377 345.733 347.354 345.619 347.31 345.512C347.266 345.406 347.202 345.309 347.12 345.227C347.039 345.146 346.943 345.081 346.837 345.037C346.731 344.993 346.617 344.97 346.502 344.97H326.652V304.58H436.856C437.74 304.58 438.616 304.405 439.433 304.066C440.25 303.726 440.992 303.229 441.617 302.601C442.242 301.974 442.738 301.229 443.077 300.409C443.415 299.59 443.589 298.711 443.589 297.824V276.423L144.229 276.423Z" fill="#022333"/>
<path d="M240.821 188.475H172.555C172.079 188.474 171.623 188.284 171.287 187.947C170.95 187.609 170.761 187.152 170.76 186.674V158.885C170.761 158.407 170.95 157.95 171.287 157.612C171.623 157.275 172.079 157.085 172.555 157.084H240.821C241.297 157.085 241.753 157.275 242.089 157.612C242.425 157.95 242.615 158.407 242.615 158.885V186.674C242.615 187.152 242.425 187.609 242.089 187.947C241.753 188.284 241.297 188.474 240.821 188.475Z" fill="#01344C"/>
<path d="M239.555 201.588H173.534C172.851 201.588 172.197 201.361 171.715 200.958C171.232 200.554 170.961 200.007 170.961 199.436C170.961 198.865 171.232 198.318 171.715 197.915C172.197 197.511 172.851 197.284 173.534 197.284H239.555C242.872 197.246 242.905 201.627 239.555 201.588Z" fill="#E4E4E4"/>
<path d="M239.555 211.426H173.534C172.851 211.426 172.197 211.199 171.715 210.796C171.232 210.392 170.961 209.845 170.961 209.274C170.961 208.703 171.232 208.156 171.715 207.753C172.197 207.349 172.851 207.122 173.534 207.122H239.555C242.872 207.084 242.905 211.465 239.555 211.426Z" fill="#E4E4E4"/>
<path d="M239.555 221.879H173.534C172.851 221.879 172.197 221.652 171.715 221.249C171.232 220.845 170.961 220.298 170.961 219.727C170.961 219.156 171.232 218.609 171.715 218.205C172.197 217.802 172.851 217.575 173.534 217.575H239.555C242.872 217.536 242.905 221.918 239.555 221.879Z" fill="#E4E4E4"/>
<path d="M327.912 188.475H259.646C259.17 188.474 258.714 188.284 258.378 187.947C258.042 187.609 257.852 187.152 257.852 186.674V158.885C257.852 158.407 258.042 157.95 258.378 157.612C258.714 157.275 259.17 157.085 259.646 157.084H327.912C328.388 157.085 328.844 157.275 329.18 157.612C329.517 157.95 329.706 158.407 329.706 158.885V186.674C329.706 187.152 329.517 187.609 329.18 187.947C328.844 188.284 328.388 188.474 327.912 188.475Z" fill="#01344C"/>
<path d="M327.174 201.588H260.584C259.896 201.588 259.236 201.361 258.75 200.958C258.263 200.554 257.99 200.007 257.99 199.436C257.99 198.865 258.263 198.318 258.75 197.915C259.236 197.511 259.896 197.284 260.584 197.284H327.174C330.52 197.246 330.554 201.627 327.174 201.588Z" fill="#E4E4E4"/>
<path d="M327.174 211.426H260.584C259.896 211.426 259.236 211.199 258.75 210.796C258.263 210.392 257.99 209.845 257.99 209.274C257.99 208.703 258.263 208.156 258.75 207.753C259.236 207.349 259.896 207.122 260.584 207.122H327.174C330.52 207.084 330.554 211.465 327.174 211.426Z" fill="#E4E4E4"/>
<path d="M327.174 221.879H260.584C259.896 221.879 259.236 221.652 258.75 221.249C258.263 220.845 257.99 220.298 257.99 219.727C257.99 219.156 258.263 218.609 258.75 218.205C259.236 217.802 259.896 217.575 260.584 217.575H327.174C330.52 217.536 330.554 221.918 327.174 221.879Z" fill="#E4E4E4"/>
<path d="M415.003 188.475H346.737C346.262 188.474 345.806 188.284 345.469 187.947C345.133 187.609 344.944 187.152 344.943 186.674V158.885C344.944 158.407 345.133 157.95 345.469 157.612C345.806 157.275 346.262 157.085 346.737 157.084H415.003C415.479 157.085 415.935 157.275 416.272 157.612C416.608 157.95 416.797 158.407 416.798 158.885V186.674C416.797 187.152 416.608 187.609 416.272 187.947C415.935 188.284 415.479 188.474 415.003 188.475Z" fill="#01344C"/>
<path d="M414.202 201.588H347.612C346.924 201.588 346.264 201.361 345.778 200.958C345.291 200.554 345.018 200.007 345.018 199.436C345.018 198.865 345.291 198.318 345.778 197.915C346.264 197.511 346.924 197.284 347.612 197.284H414.202C417.548 197.246 417.582 201.627 414.202 201.588Z" fill="#E4E4E4"/>
<path d="M414.202 211.426H347.608C346.921 211.425 346.262 211.198 345.776 210.794C345.291 210.391 345.018 209.844 345.018 209.274C345.018 208.704 345.291 208.157 345.776 207.754C346.262 207.35 346.921 207.123 347.608 207.122H414.202C417.548 207.084 417.582 211.465 414.202 211.426Z" fill="#E4E4E4"/>
<path d="M414.202 221.879H347.612C346.924 221.879 346.264 221.652 345.778 221.249C345.291 220.845 345.018 220.298 345.018 219.727C345.018 219.156 345.291 218.609 345.778 218.205C346.264 217.802 346.924 217.575 347.612 217.575H414.202C417.548 217.536 417.582 221.918 414.202 221.879Z" fill="#E4E4E4"/>
<path d="M531.655 157.46L531.841 192.292L532.602 192.249L533.325 205.145L531.913 205.222L531.952 212.969L533.083 212.947L533.312 225.854L532.024 225.878L532.637 339.541C532.651 342.517 531.487 345.377 529.4 347.493C527.314 349.609 524.476 350.808 521.51 350.827L396.361 351.508C393.395 351.521 390.544 350.354 388.435 348.26C386.326 346.167 385.131 343.32 385.112 340.344L384.129 158.262C384.116 155.286 385.28 152.426 387.366 150.31C389.452 148.194 392.29 146.995 395.257 146.976L520.405 146.296C523.371 146.283 526.221 147.452 528.33 149.545C530.439 151.637 531.635 154.484 531.655 157.46Z" fill="#01344C"/>
<path d="M521.691 343.667L396.102 344.35C395.188 344.354 394.309 343.994 393.659 343.349C393.009 342.703 392.641 341.826 392.635 340.908L391.644 157.617C391.64 156.699 391.999 155.818 392.642 155.166C393.285 154.513 394.16 154.144 395.074 154.138L520.663 153.454C521.578 153.45 522.456 153.811 523.106 154.456C523.756 155.101 524.125 155.978 524.131 156.896L525.122 340.188C525.125 341.105 524.767 341.986 524.123 342.639C523.48 343.291 522.606 343.661 521.691 343.667Z" fill="white"/>
<path d="M457.373 151.029C457.898 151.029 458.324 150.602 458.324 150.075C458.324 149.547 457.898 149.12 457.373 149.12C456.847 149.12 456.421 149.547 456.421 150.075C456.421 150.602 456.847 151.029 457.373 151.029Z" fill="white"/>
<path d="M494.726 205.045H422.039C421.533 205.044 421.047 204.842 420.689 204.483C420.331 204.124 420.129 203.636 420.129 203.128V173.539C420.129 173.031 420.331 172.543 420.689 172.184C421.047 171.825 421.533 171.623 422.039 171.622H494.726C495.233 171.623 495.718 171.825 496.077 172.184C496.435 172.543 496.636 173.031 496.637 173.539V203.128C496.636 203.636 496.435 204.124 496.077 204.483C495.718 204.842 495.233 205.044 494.726 205.045Z" fill="#01344C"/>
<path d="M493.725 219.419H423.151C422.422 219.419 421.723 219.16 421.207 218.699C420.691 218.238 420.402 217.612 420.402 216.96C420.402 216.308 420.691 215.682 421.207 215.221C421.723 214.76 422.422 214.501 423.151 214.501H493.725C497.271 214.457 497.307 219.464 493.725 219.419Z" fill="#E4E4E4"/>
<path d="M493.725 229.872H423.147C422.418 229.871 421.72 229.612 421.205 229.15C420.691 228.689 420.402 228.064 420.402 227.413C420.402 226.761 420.691 226.137 421.205 225.675C421.72 225.214 422.418 224.955 423.147 224.954H493.725C497.271 224.909 497.307 229.917 493.725 229.872Z" fill="#E4E4E4"/>
<path d="M493.725 240.325H423.151C422.422 240.325 421.723 240.098 421.207 239.695C420.691 239.291 420.402 238.744 420.402 238.173C420.402 237.603 420.691 237.055 421.207 236.652C421.723 236.248 422.422 236.022 423.151 236.022H493.725C497.271 235.983 497.307 240.364 493.725 240.325Z" fill="#E4E4E4"/>
<path d="M494.726 290.903H422.039C421.533 290.903 421.047 290.7 420.689 290.341C420.331 289.982 420.129 289.495 420.129 288.986V259.397C420.129 258.889 420.331 258.402 420.689 258.042C421.047 257.683 421.533 257.481 422.039 257.48H494.726C495.233 257.481 495.718 257.683 496.077 258.042C496.435 258.401 496.636 258.889 496.637 259.397V288.986C496.636 289.495 496.435 289.982 496.077 290.341C495.718 290.7 495.233 290.903 494.726 290.903Z" fill="#01344C"/>
<path d="M493.725 304.887H423.151C422.422 304.887 421.723 304.66 421.207 304.257C420.691 303.853 420.402 303.306 420.402 302.735C420.402 302.165 420.691 301.617 421.207 301.214C421.723 300.81 422.422 300.584 423.151 300.584H493.725C497.271 300.545 497.307 304.926 493.725 304.887Z" fill="#E4E4E4"/>
<path d="M493.725 315.34H423.147C422.418 315.339 421.72 315.112 421.205 314.709C420.691 314.305 420.402 313.758 420.402 313.188C420.402 312.618 420.691 312.071 421.205 311.668C421.72 311.265 422.418 311.037 423.147 311.036H493.725C497.271 310.998 497.307 315.379 493.725 315.34Z" fill="#E4E4E4"/>
<path d="M493.725 326.408H423.151C422.422 326.408 421.723 326.149 421.207 325.688C420.691 325.226 420.402 324.601 420.402 323.949C420.402 323.296 420.691 322.671 421.207 322.21C421.723 321.748 422.422 321.489 423.151 321.489H493.725C497.271 321.445 497.307 326.452 493.725 326.408Z" fill="#E4E4E4"/>
<path d="M88.7793 346.015L94.1469 346.014L96.7001 325.244H88.7781L88.7793 346.015Z" fill="#F5C9A0"/>
<path d="M87.4097 344.256L88.9204 344.256L94.8186 341.85L97.9799 344.256C99.7664 344.256 101.48 344.968 102.743 346.236C104.007 347.503 104.716 349.222 104.717 351.014V351.234L87.41 351.234L87.4097 344.256Z" fill="#022333"/>
<path d="M109.579 342.621L114.814 343.807L121.865 324.112L114.138 322.361L109.579 342.621Z" fill="#F5C9A0"/>
<path d="M108.629 340.604L110.103 340.938L116.384 339.894L118.94 342.939C120.682 343.334 122.198 344.407 123.152 345.923C124.105 347.438 124.42 349.272 124.027 351.02L123.979 351.234L107.097 347.41L108.629 340.604Z" fill="#022333"/>
<path d="M81.9808 219.036C79.4643 226.651 79.7304 234.916 82.5857 243.787L83.8063 293.732C83.8063 293.732 81.9877 326.485 87.8559 338.011H96.3664L100.58 290.741L101.109 259.013L119.355 285.781L107.734 337.238L118.208 338.177L137.066 282.334L113.799 228.157L81.9808 219.036Z" fill="#01344C"/>
<path d="M115.317 229.757L84.3704 224.791C83.5588 224.53 82.8131 224.096 82.1844 223.519C81.5557 222.941 81.0589 222.234 80.7282 221.446C80.3975 220.658 80.2407 219.808 80.2685 218.953C80.2964 218.099 80.5082 217.26 80.8895 216.496L82.2929 213.679L81.7477 184.091C81.682 180.242 82.6278 176.444 84.4898 173.079C86.3518 169.713 89.0645 166.899 92.3549 164.919L95.3727 163.109L96.8978 159.223L110.961 159.567L111.002 164.663L116.038 172.72L116.038 172.754L115.722 216.608L114.334 221.133L116.433 226.397L115.317 229.757Z" fill="#038FD1"/>
<path d="M105.217 154.391C112.274 154.391 117.995 148.652 117.995 141.572C117.995 134.492 112.274 128.752 105.217 128.752C98.1605 128.752 92.4397 134.492 92.4397 141.572C92.4397 148.652 98.1605 154.391 105.217 154.391Z" fill="#F5C9A0"/>
<path d="M91.9122 144.366C91.5311 142.756 91.706 140.489 91.9214 138.867C92.1972 136.728 92.9179 134.672 94.0366 132.83C95.1554 130.989 96.6472 129.404 98.4156 128.178C99.0936 127.662 99.8993 127.34 100.746 127.249C101.169 127.213 101.593 127.313 101.956 127.533C102.319 127.754 102.604 128.084 102.768 128.477C102.982 127.943 103.301 127.459 103.708 127.054C104.115 126.649 104.6 126.332 105.134 126.123C106.206 125.711 107.359 125.555 108.501 125.668C110.716 125.851 112.84 126.632 114.647 127.929C116.455 129.225 117.879 130.988 118.768 133.031C119.11 133.844 120.063 130.84 120.495 131.608C120.893 132.407 121.586 133.018 122.427 133.311C123.274 133.548 123.618 137.05 123.952 136.234C124.21 136.837 124.313 137.497 124.249 138.151C124.185 138.805 123.958 139.432 123.587 139.974C123.217 140.515 122.716 140.954 122.131 141.25C121.546 141.545 120.896 141.687 120.242 141.662C119.386 141.551 118.538 141.389 117.702 141.175C116.168 140.981 114.615 141.357 113.338 142.233C112.061 143.109 111.148 144.423 110.771 145.928C110.538 145.053 110.165 144.221 109.668 143.465C109.415 143.089 109.077 142.779 108.681 142.561C108.285 142.343 107.842 142.222 107.391 142.21C106.959 142.26 106.542 142.397 106.165 142.615C105.788 142.832 105.459 143.124 105.199 143.474C104.636 144.137 104.214 144.91 103.647 145.569C101.985 147.503 99.7356 152.013 97.366 151.684C95.4959 151.424 92.4325 146.566 91.9122 144.366Z" fill="#0A2D3E"/>
<path d="M152.851 220.399C152.307 220.636 151.718 220.751 151.126 220.735C150.533 220.719 149.951 220.572 149.421 220.306C148.89 220.04 148.425 219.661 148.056 219.194C147.688 218.728 147.426 218.187 147.289 217.608L132.949 216.154L137.68 210.329L150.572 212.602C151.557 212.436 152.568 212.637 153.414 213.169C154.26 213.7 154.883 214.524 155.163 215.485C155.444 216.446 155.364 217.477 154.938 218.383C154.512 219.289 153.769 220.006 152.851 220.399Z" fill="#F5C9A0"/>
<path d="M144.031 218.088L110.567 214.995L110.521 214.942L86.0973 186.866C84.49 184.395 83.8848 181.402 84.4057 178.498C84.9265 175.594 86.5341 173 88.8991 171.247C90.2077 170.279 91.7057 169.601 93.2945 169.256C94.8834 168.911 96.527 168.908 98.1173 169.246C99.7075 169.584 101.208 170.257 102.521 171.219C103.833 172.181 104.928 173.411 105.733 174.828L120.775 201.329L144.4 210.852L144.031 218.088Z" fill="#038FD1"/>
<path d="M516.92 221.139C517.466 221.192 518.017 221.124 518.535 220.94C519.052 220.755 519.523 220.46 519.914 220.073C520.305 219.687 520.607 219.219 520.798 218.703C520.989 218.187 521.066 217.635 521.021 217.086L533.232 211.693L527.407 207.921L516.704 213.621C515.79 213.757 514.957 214.224 514.364 214.935C513.77 215.645 513.457 216.549 513.483 217.476C513.51 218.403 513.875 219.288 514.508 219.963C515.141 220.638 515.999 221.056 516.92 221.139Z" fill="#F5C9A0"/>
<path d="M524.099 215.86L521.931 208.285L543.88 197.237L556.829 172.206C557.469 170.969 558.372 169.888 559.476 169.041C560.579 168.193 561.854 167.6 563.212 167.302C564.569 167.005 565.975 167.011 567.33 167.321C568.685 167.63 569.955 168.235 571.051 169.092C573.028 170.642 574.312 172.916 574.62 175.415C574.928 177.914 574.235 180.433 572.694 182.42L553.224 207.468L524.099 215.86Z" fill="#E4E4E4"/>
<defs>
<linearGradient id="paint0_linear_85_5992" x1="-65.4499" y1="1437.98" x2="1195.79" y2="371.983" gradientUnits="userSpaceOnUse">
<stop offset="0.0851409" stop-color="#01344C"/>
<stop offset="0.162766" stop-color="#01344C"/>
<stop offset="0.742387" stop-color="#219BD5" stop-opacity="0.56"/>
</linearGradient>
</defs>
</svg>
