<svg width="16" height="16" viewBox="0 0 16 16" fill="none" xmlns="http://www.w3.org/2000/svg">
<g clip-path="url(#clip0_37_9)">
<path d="M14.9353 11.9868C15.6121 10.8128 16.001 9.45206 16.001 8.00052C16 3.58192 12.4181 0 8.00052 0C3.58295 0 0 3.58192 0 8.00052C0 12.4191 3.58192 16.001 8.00052 16.001C9.47992 16.001 10.8654 15.5977 12.0549 14.8972L15.0715 15.9608C15.6183 16.1537 16.1475 15.6338 15.9649 15.0839L14.9364 11.9879L14.9353 11.9868Z" fill="#01344C"/>
<path d="M3.70573 10.2371C3.42306 10.2371 3.19403 10.0081 3.19403 9.72544V6.66966C3.19403 6.38699 3.42306 6.15796 3.70573 6.15796C3.98841 6.15796 4.21744 6.38699 4.21744 6.66966V9.72544C4.21744 10.0081 3.98841 10.2371 3.70573 10.2371Z" fill="white"/>
<path d="M8.19551 10.2557H5.56478C5.36464 10.2557 5.18203 10.1391 5.0995 9.95653C5.01594 9.77393 5.04689 9.56037 5.17791 9.40872L7.12568 7.16074H5.61533C5.33266 7.16074 5.10363 6.93171 5.10363 6.64903C5.10363 6.36636 5.33266 6.13733 5.61533 6.13733H8.24606C8.4462 6.13733 8.62881 6.25391 8.71134 6.43651C8.7949 6.61911 8.76395 6.83267 8.63293 6.98432L6.68516 9.23231H8.19551C8.47818 9.23231 8.70721 9.46133 8.70721 9.74401C8.70721 10.0267 8.47818 10.2557 8.19551 10.2557Z" fill="white"/>
<path d="M3.70678 5.51628C4.00021 5.51628 4.23809 5.27841 4.23809 4.98498C4.23809 4.69155 4.00021 4.45367 3.70678 4.45367C3.41335 4.45367 3.17548 4.69155 3.17548 4.98498C3.17548 5.27841 3.41335 5.51628 3.70678 5.51628Z" fill="white"/>
<path d="M12.7864 10.3073C12.5037 10.3073 12.2747 10.0783 12.2747 9.7956V8.19653C12.2747 7.59713 11.7867 7.10916 11.1873 7.10916C10.5879 7.10916 10.0999 7.59713 10.0999 8.19653C10.0999 8.79592 10.5879 9.2839 11.1873 9.2839C11.47 9.2839 11.699 9.51293 11.699 9.7956C11.699 10.0783 11.47 10.3073 11.1873 10.3073C10.0236 10.3073 9.07654 9.36024 9.07654 8.19653C9.07654 7.03282 10.0236 6.08575 11.1873 6.08575C12.351 6.08575 13.2981 7.03282 13.2981 8.19653V9.7956C13.2981 10.0783 13.0691 10.3073 12.7864 10.3073Z" fill="white"/>
</g>
<defs>
<clipPath id="clip0_37_9">
<rect width="16" height="16" fill="white"/>
</clipPath>
</defs>
</svg>
