<svg width="311" height="209" viewBox="0 0 311 209" fill="none" xmlns="http://www.w3.org/2000/svg">
<path d="M1 1C35.2332 5.61584 64.2246 30.1979 75.5434 62.07C82.1337 80.6275 80.2672 109.287 54.1516 109.287C35.3465 109.287 40.2724 84.8624 50.5481 74.5797C61.4927 63.6277 74.5901 59.7578 90.1866 62.07C116.439 65.9619 139.013 86.4741 152.058 117.294C169.464 158.418 194.448 183.641 234.777 180.054C253.16 178.419 267.54 163.739 274.713 154.767C285.733 140.982 303.812 107.182 281.963 94.2251C265.704 84.5833 251.238 99.3237 251.238 115.568C251.238 153.009 281.634 195.024 310 208" stroke="#678EA1" stroke-linecap="round" stroke-dasharray="10 10"/>
</svg>
