<svg width="345" height="232" viewBox="0 0 345 232" fill="none" xmlns="http://www.w3.org/2000/svg">
<path d="M344 1C306 6.12024 273.819 33.3886 261.254 68.7435C253.939 89.3289 256.011 121.12 285 121.12C305.874 121.12 300.406 94.0266 289 82.6202C276.851 70.4714 262.313 66.1787 245 68.7435C215.859 73.0608 190.801 95.8145 176.321 130.002C157 175.62 129.266 203.599 84.5 199.62C64.0938 197.806 48.1319 181.522 40.1699 171.57C27.9368 156.278 7.86834 118.785 32.1219 104.412C50.1705 93.717 66.2281 110.068 66.2281 128.087C66.2281 169.62 32.4866 216.226 1 230.62" stroke="#678EA1" stroke-linecap="round" stroke-dasharray="10 10"/>
</svg>
