<svg width="128" height="128" viewBox="0 0 128 128" fill="none" xmlns="http://www.w3.org/2000/svg">
<g clip-path="url(#clip0_51_24)">
<path d="M119.483 95.8948C124.897 86.5025 128.008 75.6165 128.008 64.0041C128 28.6554 99.3446 0 64.0041 0C28.6636 0 0 28.6554 0 64.0041C0 99.3529 28.6554 128.008 64.0041 128.008C75.8393 128.008 86.9235 124.781 96.4395 119.177L120.572 127.686C124.946 129.23 129.18 125.07 127.719 120.671L119.491 95.903L119.483 95.8948Z" fill="#01344C"/>
<path d="M29.6457 81.8972C27.3843 81.8972 25.5521 80.065 25.5521 77.8036V53.3574C25.5521 51.096 27.3843 49.2638 29.6457 49.2638C31.9071 49.2638 33.7394 51.096 33.7394 53.3574V77.8036C33.7394 80.065 31.9071 81.8972 29.6457 81.8972Z" fill="white"/>
<path d="M65.564 82.0458H44.5181C42.917 82.0458 41.4561 81.1132 40.7959 79.6524C40.1274 78.1915 40.375 76.4831 41.4231 75.2699L57.0053 57.286H44.9225C42.6611 57.286 40.8289 55.4538 40.8289 53.1924C40.8289 50.931 42.6611 49.0988 44.9225 49.0988H65.9684C67.5695 49.0988 69.0303 50.0314 69.6906 51.4922C70.3591 52.953 70.1115 54.6615 69.0633 55.8747L53.4812 73.8586H65.564C67.8254 73.8586 69.6576 75.6908 69.6576 77.9522C69.6576 80.2136 67.8254 82.0458 65.564 82.0458Z" fill="white"/>
<path d="M29.654 44.1303C32.0015 44.1303 33.9044 42.2273 33.9044 39.8798C33.9044 37.5324 32.0015 35.6294 29.654 35.6294C27.3065 35.6294 25.4036 37.5324 25.4036 39.8798C25.4036 42.2273 27.3065 44.1303 29.654 44.1303Z" fill="white"/>
<path d="M102.291 82.4585C100.03 82.4585 98.1974 80.6263 98.1974 78.3649V65.5723C98.1974 60.7771 94.2936 56.8733 89.4985 56.8733C84.7033 56.8733 80.7995 60.7771 80.7995 65.5723C80.7995 70.3674 84.7033 74.2712 89.4985 74.2712C91.7599 74.2712 93.5921 76.1035 93.5921 78.3649C93.5921 80.6263 91.7599 82.4585 89.4985 82.4585C80.1888 82.4585 72.6123 74.882 72.6123 65.5723C72.6123 56.2626 80.1888 48.6861 89.4985 48.6861C98.8082 48.6861 106.385 56.2626 106.385 65.5723V78.3649C106.385 80.6263 104.552 82.4585 102.291 82.4585Z" fill="white"/>
</g>
<defs>
<clipPath id="clip0_51_24">
<rect width="128" height="128" fill="white"/>
</clipPath>
</defs>
</svg>
